{
    "asset" : {
        "generator" : "Khronos glTF Blender I/O v1.4.40",
        "version" : "2.0"
    },
    "scene" : 0,
    "scenes" : [
        {
            "name" : "Scene",
            "nodes" : [
                0,
                1,
                2
            ]
        }
    ],
    "nodes" : [
        {
            "mesh" : 0,
            "name" : "Kubus.008",
            "rotation" : [
                0,
                0,
                -0.7071068286895752,
                0.7071068286895752
            ],
            "scale" : [
                0.05324653163552284,
                0.5759006142616272,
                0.9676415920257568
            ],
            "translation" : [
                -18.623947143554688,
                0.09700720012187958,
                27.45425796508789
            ]
        },
        {
            "mesh" : 1,
            "name" : "Tekst",
            "rotation" : [
                0,
                0.7071068286895752,
                0,
                0.7071068286895752
            ],
            "scale" : [
                0.6123042702674866,
                0.6123043298721313,
                0.3543494641780853
            ],
            "translation" : [
                -18.89548110961914,
                0.16149578988552094,
                26.85236358642578
            ]
        },
        {
            "mesh" : 2,
            "name" : "Tekst.001",
            "rotation" : [
                0,
                0.7071068286895752,
                0,
                0.7071068286895752
            ],
            "scale" : [
                0.6123042702674866,
                0.6123043298721313,
                0.3543494641780853
            ],
            "translation" : [
                -18.281299591064453,
                0.16149578988552094,
                27.773630142211914
            ]
        }
    ],
    "materials" : [
        {
            "doubleSided" : true,
            "name" : "Materiaal.004",
            "pbrMetallicRoughness" : {
                "baseColorFactor" : [
                    0.2986145615577698,
                    1,
                    0.6299051642417908,
                    1
                ],
                "metallicFactor" : 0,
                "roughnessFactor" : 0.5
            }
        },
        {
            "doubleSided" : true,
            "name" : "wit",
            "pbrMetallicRoughness" : {
                "metallicFactor" : 0,
                "roughnessFactor" : 0.5
            }
        }
    ],
    "meshes" : [
        {
            "name" : "Kubus.009",
            "primitives" : [
                {
                    "attributes" : {
                        "POSITION" : 0,
                        "NORMAL" : 1,
                        "TEXCOORD_0" : 2
                    },
                    "indices" : 3,
                    "material" : 0
                },
                {
                    "attributes" : {
                        "POSITION" : 4,
                        "NORMAL" : 5,
                        "TEXCOORD_0" : 6
                    },
                    "indices" : 7,
                    "material" : 1
                }
            ]
        },
        {
            "name" : "Tekst",
            "primitives" : [
                {
                    "attributes" : {
                        "POSITION" : 8,
                        "NORMAL" : 9,
                        "TEXCOORD_0" : 10
                    },
                    "indices" : 11
                }
            ]
        },
        {
            "name" : "Tekst.002",
            "primitives" : [
                {
                    "attributes" : {
                        "POSITION" : 12,
                        "NORMAL" : 13,
                        "TEXCOORD_0" : 14
                    },
                    "indices" : 15
                }
            ]
        }
    ],
    "accessors" : [
        {
            "bufferView" : 0,
            "componentType" : 5126,
            "count" : 22,
            "max" : [
                1,
                1,
                1
            ],
            "min" : [
                -1,
                -1,
                -1
            ],
            "type" : "VEC3"
        },
        {
            "bufferView" : 1,
            "componentType" : 5126,
            "count" : 22,
            "type" : "VEC3"
        },
        {
            "bufferView" : 2,
            "componentType" : 5126,
            "count" : 22,
            "type" : "VEC2"
        },
        {
            "bufferView" : 3,
            "componentType" : 5123,
            "count" : 36,
            "type" : "SCALAR"
        },
        {
            "bufferView" : 4,
            "componentType" : 5126,
            "count" : 16,
            "max" : [
                1,
                1,
                1
            ],
            "min" : [
                -1,
                -1,
                0.4000000059604645
            ],
            "type" : "VEC3"
        },
        {
            "bufferView" : 5,
            "componentType" : 5126,
            "count" : 16,
            "type" : "VEC3"
        },
        {
            "bufferView" : 6,
            "componentType" : 5126,
            "count" : 16,
            "type" : "VEC2"
        },
        {
            "bufferView" : 7,
            "componentType" : 5123,
            "count" : 24,
            "type" : "SCALAR"
        },
        {
            "bufferView" : 8,
            "componentType" : 5126,
            "count" : 112,
            "max" : [
                0.43800002336502075,
                0,
                0.009000000543892384
            ],
            "min" : [
                0.05000000074505806,
                0,
                -0.6820000410079956
            ],
            "type" : "VEC3"
        },
        {
            "bufferView" : 9,
            "componentType" : 5126,
            "count" : 112,
            "type" : "VEC3"
        },
        {
            "bufferView" : 10,
            "componentType" : 5126,
            "count" : 112,
            "type" : "VEC2"
        },
        {
            "bufferView" : 11,
            "componentType" : 5123,
            "count" : 228,
            "type" : "SCALAR"
        },
        {
            "bufferView" : 12,
            "componentType" : 5126,
            "count" : 401,
            "max" : [
                1.8910000324249268,
                0,
                0.009000000543892384
            ],
            "min" : [
                0.04100000113248825,
                0,
                -0.4580000340938568
            ],
            "type" : "VEC3"
        },
        {
            "bufferView" : 13,
            "componentType" : 5126,
            "count" : 401,
            "type" : "VEC3"
        },
        {
            "bufferView" : 14,
            "componentType" : 5126,
            "count" : 401,
            "type" : "VEC2"
        },
        {
            "bufferView" : 15,
            "componentType" : 5123,
            "count" : 906,
            "type" : "SCALAR"
        }
    ],
    "bufferViews" : [
        {
            "buffer" : 0,
            "byteLength" : 264,
            "byteOffset" : 0
        },
        {
            "buffer" : 0,
            "byteLength" : 264,
            "byteOffset" : 264
        },
        {
            "buffer" : 0,
            "byteLength" : 176,
            "byteOffset" : 528
        },
        {
            "buffer" : 0,
            "byteLength" : 72,
            "byteOffset" : 704
        },
        {
            "buffer" : 0,
            "byteLength" : 192,
            "byteOffset" : 776
        },
        {
            "buffer" : 0,
            "byteLength" : 192,
            "byteOffset" : 968
        },
        {
            "buffer" : 0,
            "byteLength" : 128,
            "byteOffset" : 1160
        },
        {
            "buffer" : 0,
            "byteLength" : 48,
            "byteOffset" : 1288
        },
        {
            "buffer" : 0,
            "byteLength" : 1344,
            "byteOffset" : 1336
        },
        {
            "buffer" : 0,
            "byteLength" : 1344,
            "byteOffset" : 2680
        },
        {
            "buffer" : 0,
            "byteLength" : 896,
            "byteOffset" : 4024
        },
        {
            "buffer" : 0,
            "byteLength" : 456,
            "byteOffset" : 4920
        },
        {
            "buffer" : 0,
            "byteLength" : 4812,
            "byteOffset" : 5376
        },
        {
            "buffer" : 0,
            "byteLength" : 4812,
            "byteOffset" : 10188
        },
        {
            "buffer" : 0,
            "byteLength" : 3208,
            "byteOffset" : 15000
        },
        {
            "buffer" : 0,
            "byteLength" : 1812,
            "byteOffset" : 18208
        }
    ],
    "buffers" : [
        {
            "byteLength" : 20020,
            "uri" : "data:application/octet-stream;base64,"
        }
    ]
}
