{
    "asset" : {
        "generator" : "Khronos glTF Blender I/O v1.4.40",
        "version" : "2.0"
    },
    "scene" : 0,
    "scenes" : [
        {
            "name" : "Scene",
            "nodes" : [
                0
            ]
        }
    ],
    "nodes" : [
        {
            "mesh" : 0,
            "name" : "Cube.111",
            "scale" : [
                0.43994128704071045,
                0.43994128704071045,
                0.43994128704071045
            ],
            "translation" : [
                -36.61011505126953,
                0.982555091381073,
                1.4577054977416992
            ]
        }
    ],
    "animations" : [
        {
            "channels" : [
                {
                    "sampler" : 0,
                    "target" : {
                        "node" : 0,
                        "path" : "translation"
                    }
                },
                {
                    "sampler" : 1,
                    "target" : {
                        "node" : 0,
                        "path" : "rotation"
                    }
                },
                {
                    "sampler" : 2,
                    "target" : {
                        "node" : 0,
                        "path" : "scale"
                    }
                }
            ],
            "name" : "Cube.007Action.028",
            "samplers" : [
                {
                    "input" : 12,
                    "interpolation" : "LINEAR",
                    "output" : 13
                },
                {
                    "input" : 12,
                    "interpolation" : "LINEAR",
                    "output" : 14
                },
                {
                    "input" : 12,
                    "interpolation" : "LINEAR",
                    "output" : 15
                }
            ]
        }
    ],
    "materials" : [
        {
            "doubleSided" : true,
            "name" : "donker",
            "pbrMetallicRoughness" : {
                "baseColorFactor" : [
                    0.05126946046948433,
                    0.05286067724227905,
                    0.04518623277544975,
                    1
                ],
                "metallicFactor" : 0,
                "roughnessFactor" : 0.5
            }
        },
        {
            "doubleSided" : true,
            "name" : "Licht.003",
            "pbrMetallicRoughness" : {
                "baseColorFactor" : [
                    0.5775803923606873,
                    0.5775806307792664,
                    0.5775805711746216,
                    1
                ],
                "metallicFactor" : 0,
                "roughnessFactor" : 0.5
            }
        },
        {
            "doubleSided" : true,
            "emissiveFactor" : [
                1,
                1,
                1
            ],
            "name" : "Lamp.001",
            "pbrMetallicRoughness" : {}
        }
    ],
    "meshes" : [
        {
            "name" : "Cube.111",
            "primitives" : [
                {
                    "attributes" : {
                        "POSITION" : 0,
                        "NORMAL" : 1,
                        "TEXCOORD_0" : 2
                    },
                    "indices" : 3,
                    "material" : 0
                },
                {
                    "attributes" : {
                        "POSITION" : 4,
                        "NORMAL" : 5,
                        "TEXCOORD_0" : 6
                    },
                    "indices" : 7,
                    "material" : 1
                },
                {
                    "attributes" : {
                        "POSITION" : 8,
                        "NORMAL" : 9,
                        "TEXCOORD_0" : 10
                    },
                    "indices" : 11,
                    "material" : 2
                }
            ]
        }
    ],
    "accessors" : [
        {
            "bufferView" : 0,
            "componentType" : 5126,
            "count" : 88,
            "max" : [
                1.0345942974090576,
                7.933054447174072,
                1.0120002031326294
            ],
            "min" : [
                -1.0345947742462158,
                -7.505849361419678,
                -1.0119998455047607
            ],
            "type" : "VEC3"
        },
        {
            "bufferView" : 1,
            "componentType" : 5126,
            "count" : 88,
            "type" : "VEC3"
        },
        {
            "bufferView" : 2,
            "componentType" : 5126,
            "count" : 88,
            "type" : "VEC2"
        },
        {
            "bufferView" : 3,
            "componentType" : 5123,
            "count" : 132,
            "type" : "SCALAR"
        },
        {
            "bufferView" : 4,
            "componentType" : 5126,
            "count" : 190,
            "max" : [
                7.0320940017700195,
                24.595016479492188,
                1.073017954826355
            ],
            "min" : [
                -0.6799430251121521,
                7.505849361419678,
                -0.767167329788208
            ],
            "type" : "VEC3"
        },
        {
            "bufferView" : 5,
            "componentType" : 5126,
            "count" : 190,
            "type" : "VEC3"
        },
        {
            "bufferView" : 6,
            "componentType" : 5126,
            "count" : 190,
            "type" : "VEC2"
        },
        {
            "bufferView" : 7,
            "componentType" : 5123,
            "count" : 390,
            "type" : "SCALAR"
        },
        {
            "bufferView" : 8,
            "componentType" : 5126,
            "count" : 9,
            "max" : [
                7.0320940017700195,
                23.107837677001953,
                0.8613253831863403
            ],
            "min" : [
                4.85967493057251,
                23.107837677001953,
                -0.767167329788208
            ],
            "type" : "VEC3"
        },
        {
            "bufferView" : 9,
            "componentType" : 5126,
            "count" : 9,
            "type" : "VEC3"
        },
        {
            "bufferView" : 10,
            "componentType" : 5126,
            "count" : 9,
            "type" : "VEC2"
        },
        {
            "bufferView" : 11,
            "componentType" : 5123,
            "count" : 24,
            "type" : "SCALAR"
        },
        {
            "bufferView" : 12,
            "componentType" : 5126,
            "count" : 117,
            "max" : [
                10.083333333333334
            ],
            "min" : [
                5.25
            ],
            "type" : "SCALAR"
        },
        {
            "bufferView" : 13,
            "componentType" : 5126,
            "count" : 117,
            "type" : "VEC3"
        },
        {
            "bufferView" : 14,
            "componentType" : 5126,
            "count" : 117,
            "type" : "VEC4"
        },
        {
            "bufferView" : 15,
            "componentType" : 5126,
            "count" : 117,
            "type" : "VEC3"
        }
    ],
    "bufferViews" : [
        {
            "buffer" : 0,
            "byteLength" : 1056,
            "byteOffset" : 0
        },
        {
            "buffer" : 0,
            "byteLength" : 1056,
            "byteOffset" : 1056
        },
        {
            "buffer" : 0,
            "byteLength" : 704,
            "byteOffset" : 2112
        },
        {
            "buffer" : 0,
            "byteLength" : 264,
            "byteOffset" : 2816
        },
        {
            "buffer" : 0,
            "byteLength" : 2280,
            "byteOffset" : 3080
        },
        {
            "buffer" : 0,
            "byteLength" : 2280,
            "byteOffset" : 5360
        },
        {
            "buffer" : 0,
            "byteLength" : 1520,
            "byteOffset" : 7640
        },
        {
            "buffer" : 0,
            "byteLength" : 780,
            "byteOffset" : 9160
        },
        {
            "buffer" : 0,
            "byteLength" : 108,
            "byteOffset" : 9940
        },
        {
            "buffer" : 0,
            "byteLength" : 108,
            "byteOffset" : 10048
        },
        {
            "buffer" : 0,
            "byteLength" : 72,
            "byteOffset" : 10156
        },
        {
            "buffer" : 0,
            "byteLength" : 48,
            "byteOffset" : 10228
        },
        {
            "buffer" : 0,
            "byteLength" : 468,
            "byteOffset" : 10276
        },
        {
            "buffer" : 0,
            "byteLength" : 1404,
            "byteOffset" : 10744
        },
        {
            "buffer" : 0,
            "byteLength" : 1872,
            "byteOffset" : 12148
        },
        {
            "buffer" : 0,
            "byteLength" : 1404,
            "byteOffset" : 14020
        }
    ],
    "buffers" : [
        {
            "byteLength" : 15424,
            "uri" : "data:application/octet-stream;base64,"
        }
    ]
}
