{
  "accessors": [
    {
      "bufferView": 2,
      "componentType": 5126,
      "count": 65532,
      "max": [
        0.45436087250709534,
        0.15897876024246216,
        0.85246777534484863
      ],
      "min": [
        -0.21768596768379211,
        -0.25370776653289795,
        -0.2540440559387207
      ],
      "type": "VEC3"
    },
    {
      "bufferView": 2,
      "byteOffset": 786384,
      "componentType": 5126,
      "count": 65532,
      "max": [
        0.99995726346969604,
        0.99985527992248535,
        0.99973124265670776
      ],
      "min": [
        -0.99999892711639404,
        -0.9999956488609314,
        -0.99988758563995361
      ],
      "type": "VEC3"
    },
    {
      "bufferView": 3,
      "componentType": 5126,
      "count": 65532,
      "max": [
        0.99981558322906494,
        0.99998891353607178,
        0.99987566471099854,
        1
      ],
      "min": [
        -0.99993753433227539,
        -0.99988114833831787,
        -0.99999946355819702,
        -1
      ],
      "type": "VEC4"
    },
    {
      "bufferView": 1,
      "componentType": 5126,
      "count": 65532,
      "max": [
        0.6304931640625,
        0.9996337890625
      ],
      "min": [
        0.0003662109375,
        0.3988037109375
      ],
      "type": "VEC2"
    },
    {
      "bufferView": 0,
      "componentType": 5125,
      "count": 239109,
      "max": [
        65531
      ],
      "min": [
        0
      ],
      "type": "SCALAR"
    },
    {
      "bufferView": 2,
      "byteOffset": 1572768,
      "componentType": 5126,
      "count": 65534,
      "max": [
        0.38798928260803223,
        0.26160717010498047,
        0.72382843494415283
      ],
      "min": [
        -0.55344086885452271,
        -0.16809278726577759,
        -0.91360652446746826
      ],
      "type": "VEC3"
    },
    {
      "bufferView": 2,
      "byteOffset": 2359176,
      "componentType": 5126,
      "count": 65534,
      "max": [
        0.99968993663787842,
        0.99958127737045288,
        0.99999344348907471
      ],
      "min": [
        -0.99999535083770752,
        -0.99998587369918823,
        -0.99992066621780396
      ],
      "type": "VEC3"
    },
    {
      "bufferView": 3,
      "byteOffset": 1048512,
      "componentType": 5126,
      "count": 65534,
      "max": [
        0.99999362230300903,
        0.99999654293060303,
        0.99994122982025146,
        1
      ],
      "min": [
        -0.9999968409538269,
        -0.99999260902404785,
        -0.99999833106994629,
        -1
      ],
      "type": "VEC4"
    },
    {
      "bufferView": 1,
      "byteOffset": 524256,
      "componentType": 5126,
      "count": 65534,
      "max": [
        0.6187744140625,
        0.9859619140625
      ],
      "min": [
        0.0120849609375,
        0.4105224609375
      ],
      "type": "VEC2"
    },
    {
      "bufferView": 0,
      "byteOffset": 956436,
      "componentType": 5125,
      "count": 154431,
      "max": [
        65533
      ],
      "min": [
        0
      ],
      "type": "SCALAR"
    },
    {
      "bufferView": 2,
      "byteOffset": 3145584,
      "componentType": 5126,
      "count": 65534,
      "max": [
        0.42193877696990967,
        0.30860090255737305,
        0.68456292152404785
      ],
      "min": [
        -0.55296945571899414,
        -0.11162102222442627,
        -0.91412627696990967
      ],
      "type": "VEC3"
    },
    {
      "bufferView": 2,
      "byteOffset": 3931992,
      "componentType": 5126,
      "count": 65534,
      "max": [
        0.99999922513961792,
        0.99990195035934448,
        0.99985098838806152
      ],
      "min": [
        -0.99999892711639404,
        -0.99997758865356445,
        -0.99992161989212036
      ],
      "type": "VEC3"
    },
    {
      "bufferView": 3,
      "byteOffset": 2097056,
      "componentType": 5126,
      "count": 65534,
      "max": [
        0.99995201826095581,
        0.99983596801757812,
        0.99999910593032837,
        1
      ],
      "min": [
        -0.99999982118606567,
        -0.99999767541885376,
        -0.9999963641166687,
        -1
      ],
      "type": "VEC4"
    },
    {
      "bufferView": 1,
      "byteOffset": 1048528,
      "componentType": 5126,
      "count": 65534,
      "max": [
        0.5953369140625,
        0.9625244140625
      ],
      "min": [
        0.0355224609375,
        0.4339599609375
      ],
      "type": "VEC2"
    },
    {
      "bufferView": 0,
      "byteOffset": 1574160,
      "componentType": 5125,
      "count": 154050,
      "max": [
        65533
      ],
      "min": [
        0
      ],
      "type": "SCALAR"
    },
    {
      "bufferView": 2,
      "byteOffset": 4718400,
      "componentType": 5126,
      "count": 41469,
      "max": [
        0.34717696905136108,
        0.3132549524307251,
        0.51155257225036621
      ],
      "min": [
        -0.37815797328948975,
        -0.038366138935089111,
        -0.91375696659088135
      ],
      "type": "VEC3"
    },
    {
      "bufferView": 2,
      "byteOffset": 5216028,
      "componentType": 5126,
      "count": 41469,
      "max": [
        0.99999356269836426,
        0.99994581937789917,
        0.99985098838806152
      ],
      "min": [
        -0.99999648332595825,
        -0.99710732698440552,
        -0.99940961599349976
      ],
      "type": "VEC3"
    },
    {
      "bufferView": 3,
      "byteOffset": 3145600,
      "componentType": 5126,
      "count": 41469,
      "max": [
        0.99995571374893188,
        0.99999809265136719,
        0.99997228384017944,
        1
      ],
      "min": [
        -0.99966627359390259,
        -0.99995392560958862,
        -0.99998182058334351,
        -1
      ],
      "type": "VEC4"
    },
    {
      "bufferView": 1,
      "byteOffset": 1572800,
      "componentType": 5126,
      "count": 41469,
      "max": [
        0.5679931640625,
        0.9371337890625
      ],
      "min": [
        0.0609130859375,
        0.4613037109375
      ],
      "type": "VEC2"
    },
    {
      "bufferView": 0,
      "byteOffset": 2190360,
      "componentType": 5125,
      "count": 52410,
      "max": [
        41468
      ],
      "min": [
        0
      ],
      "type": "SCALAR"
    }
  ],
  "asset": {
    "extras": {
      "author": "image3dstudio (https://sketchfab.com/image3dstudio)",
      "license": "CC-BY-4.0 (http://creativecommons.org/licenses/by/4.0/)",
      "source": "https://sketchfab.com/3d-models/person-eefb1c0d73864774b5fca1b00f510a4f",
      "title": "person"
    },
    "generator": "Sketchfab-6.47.0",
    "version": "2.0"
  },
  "bufferViews": [
    {
      "buffer": 0,
      "byteLength": 2400000,
      "byteOffset": 0,
      "name": "floatBufferViews",
      "target": 34963
    },
    {
      "buffer": 0,
      "byteLength": 1904552,
      "byteOffset": 2400000,
      "byteStride": 8,
      "name": "floatBufferViews",
      "target": 34962
    },
    {
      "buffer": 0,
      "byteLength": 5713656,
      "byteOffset": 4304552,
      "byteStride": 12,
      "name": "floatBufferViews",
      "target": 34962
    },
    {
      "buffer": 0,
      "byteLength": 3809104,
      "byteOffset": 10018208,
      "byteStride": 16,
      "name": "floatBufferViews",
      "target": 34962
    }
  ],
  "buffers": [
    {
      "byteLength": 13827312,
      "uri": "scene.bin"
    }
  ],
  "extensionsUsed": [
    "KHR_materials_unlit"
  ],
  "images": [
    {
      "uri": "textures/material_0_baseColor.jpeg"
    }
  ],
  "materials": [
    {
      "doubleSided": true,
      "emissiveFactor": [
        0,
        0,
        0
      ],
      "extensions": {
        "KHR_materials_unlit": {}
      },
      "name": "material_0",
      "pbrMetallicRoughness": {
        "baseColorFactor": [
          1,
          1,
          1,
          1
        ],
        "baseColorTexture": {
          "index": 0,
          "texCoord": 0
        },
        "metallicFactor": 0,
        "roughnessFactor": 1
      }
    }
  ],
  "meshes": [
    {
      "primitives": [
        {
          "attributes": {
            "NORMAL": 1,
            "POSITION": 0,
            "TANGENT": 2,
            "TEXCOORD_0": 3
          },
          "indices": 4,
          "material": 0,
          "mode": 4
        }
      ]
    },
    {
      "primitives": [
        {
          "attributes": {
            "NORMAL": 6,
            "POSITION": 5,
            "TANGENT": 7,
            "TEXCOORD_0": 8
          },
          "indices": 9,
          "material": 0,
          "mode": 4
        }
      ]
    },
    {
      "primitives": [
        {
          "attributes": {
            "NORMAL": 11,
            "POSITION": 10,
            "TANGENT": 12,
            "TEXCOORD_0": 13
          },
          "indices": 14,
          "material": 0,
          "mode": 4
        }
      ]
    },
    {
      "primitives": [
        {
          "attributes": {
            "NORMAL": 16,
            "POSITION": 15,
            "TANGENT": 17,
            "TEXCOORD_0": 18
          },
          "indices": 19,
          "material": 0,
          "mode": 4
        }
      ]
    }
  ],
  "nodes": [
    {
      "children": [
        1
      ],
      "name": "RootNode (gltf orientation matrix)",
      "rotation": [
        -0.70710678118654746,
        -0,
        -0,
        0.70710678118654757
      ]
    },
    {
      "children": [
        2
      ],
      "name": "RootNode (model correction matrix)"
    },
    {
      "children": [
        3,
        4,
        5,
        6
      ],
      "name": "model_mesh.obj.cleaner"
    },
    {
      "mesh": 0,
      "name": ""
    },
    {
      "mesh": 1,
      "name": ""
    },
    {
      "mesh": 2,
      "name": ""
    },
    {
      "mesh": 3,
      "name": ""
    }
  ],
  "samplers": [
    {
      "magFilter": 9729,
      "minFilter": 9987,
      "wrapS": 10497,
      "wrapT": 10497
    }
  ],
  "scene": 0,
  "scenes": [
    {
      "name": "OSG_Scene",
      "nodes": [
        0
      ]
    }
  ],
  "textures": [
    {
      "sampler": 0,
      "source": 0
    }
  ]
}

