{
    "asset" : {
        "generator" : "Khronos glTF Blender I/O v1.4.40",
        "version" : "2.0"
    },
    "scene" : 0,
    "scenes" : [
        {
            "name" : "Scene",
            "nodes" : [
                0,
                1,
                2
            ]
        }
    ],
    "nodes" : [
        {
            "name" : "Light.001",
            "rotation" : [
                0.16907575726509094,
                0.7558803558349609,
                -0.27217137813568115,
                0.570947527885437
            ],
            "translation" : [
                4.076245307922363,
                5.689639091491699,
                -0.9639902114868164
            ]
        },
        {
            "mesh" : 0,
            "name" : "Cube.002",
            "scale" : [
                0.3205617666244507,
                0.8237943649291992,
                1.9745007753372192
            ],
            "translation" : [
                0,
                0.8017163276672363,
                0.3488340377807617
            ]
        },
        {
            "mesh" : 1,
            "name" : "Text.003",
            "rotation" : [
                0.5,
                -0.5,
                0.5,
                0.4999999701976776
            ],
            "scale" : [
                -0.9859126806259155,
                18.027042388916016,
                0.76252281665802
            ],
            "translation" : [
                0.2690097689628601,
                0.5590817928314209,
                4.311916351318359
            ]
        }
    ],
    "materials" : [
        {
            "doubleSided" : true,
            "name" : "Material.001",
            "pbrMetallicRoughness" : {
                "metallicFactor" : 0,
                "roughnessFactor" : 0.4000000059604645
            }
        },
        {
            "doubleSided" : true,
            "name" : "logoTekst.001",
            "pbrMetallicRoughness" : {
                "baseColorFactor" : [
                    0.09305897355079651,
                    0.09305897355079651,
                    0.7156936526298523,
                    1
                ],
                "metallicFactor" : 0,
                "roughnessFactor" : 0.5
            }
        }
    ],
    "meshes" : [
        {
            "name" : "Cube.002",
            "primitives" : [
                {
                    "attributes" : {
                        "POSITION" : 0,
                        "NORMAL" : 1,
                        "TEXCOORD_0" : 2
                    },
                    "indices" : 3,
                    "material" : 0
                }
            ]
        },
        {
            "name" : "Text.003",
            "primitives" : [
                {
                    "attributes" : {
                        "POSITION" : 4,
                        "NORMAL" : 5,
                        "TEXCOORD_0" : 6
                    },
                    "indices" : 7,
                    "material" : 1
                }
            ]
        }
    ],
    "accessors" : [
        {
            "bufferView" : 0,
            "componentType" : 5126,
            "count" : 40,
            "max" : [
                1,
                1,
                2.3421554565429688
            ],
            "min" : [
                -1,
                -1,
                -2.6794610023498535
            ],
            "type" : "VEC3"
        },
        {
            "bufferView" : 1,
            "componentType" : 5126,
            "count" : 40,
            "type" : "VEC3"
        },
        {
            "bufferView" : 2,
            "componentType" : 5126,
            "count" : 40,
            "type" : "VEC2"
        },
        {
            "bufferView" : 3,
            "componentType" : 5123,
            "count" : 84,
            "type" : "SCALAR"
        },
        {
            "bufferView" : 4,
            "componentType" : 5126,
            "count" : 2364,
            "max" : [
                8.495000839233398,
                0.009999999776482582,
                0.009000000543892384
            ],
            "min" : [
                0.06100000441074371,
                -0.009999999776482582,
                -0.6910000443458557
            ],
            "type" : "VEC3"
        },
        {
            "bufferView" : 5,
            "componentType" : 5126,
            "count" : 2364,
            "type" : "VEC3"
        },
        {
            "bufferView" : 6,
            "componentType" : 5126,
            "count" : 2364,
            "type" : "VEC2"
        },
        {
            "bufferView" : 7,
            "componentType" : 5123,
            "count" : 4404,
            "type" : "SCALAR"
        }
    ],
    "bufferViews" : [
        {
            "buffer" : 0,
            "byteLength" : 480,
            "byteOffset" : 0
        },
        {
            "buffer" : 0,
            "byteLength" : 480,
            "byteOffset" : 480
        },
        {
            "buffer" : 0,
            "byteLength" : 320,
            "byteOffset" : 960
        },
        {
            "buffer" : 0,
            "byteLength" : 168,
            "byteOffset" : 1280
        },
        {
            "buffer" : 0,
            "byteLength" : 28368,
            "byteOffset" : 1448
        },
        {
            "buffer" : 0,
            "byteLength" : 28368,
            "byteOffset" : 29816
        },
        {
            "buffer" : 0,
            "byteLength" : 18912,
            "byteOffset" : 58184
        },
        {
            "buffer" : 0,
            "byteLength" : 8808,
            "byteOffset" : 77096
        }
    ],
    "buffers" : [
        {
            "byteLength" : 85904,
            "uri" : "data:application/octet-stream;base64,"
        }
    ]
}
